<svg id="Grupo_2983" data-name="Grupo 2983" xmlns="http://www.w3.org/2000/svg" xmlns:xlink="http://www.w3.org/1999/xlink" width="155.062" height="130.873" viewBox="0 0 155.062 130.873">
  <defs>
    <clipPath id="clip-path">
      <rect id="Rectángulo_1492" data-name="Rectángulo 1492" width="155.062" height="130.873" fill="#43a6c1"/>
    </clipPath>
  </defs>
  <g id="Grupo_2982" data-name="Grupo 2982" clip-path="url(#clip-path)">
    <path id="Trazado_2038" data-name="Trazado 2038" d="M0,343.528a4.025,4.025,0,0,1,4.1-2.162c4.88.1,9.764.025,14.647.035,2.282,0,3.7,1.217,3.652,3.09-.043,1.824-1.415,2.955-3.634,2.959-4.882.008-9.766-.061-14.647.035A4.091,4.091,0,0,1,0,345.345Z" transform="translate(0 -237.791)" fill="#295a83"/>
    <path id="Trazado_2039" data-name="Trazado 2039" d="M53.611,90.282H41.5c-.5,0-1.011.022-1.514-.008A3.055,3.055,0,0,1,36.967,87.3a2.986,2.986,0,0,1,3.081-3.051c3.734-.049,7.468-.018,11.2-.02h2.36v-1.79c0-10.295.024-20.589-.025-30.884a4.537,4.537,0,0,1,1.844-3.889c4.958-3.978,9.843-8.047,14.792-12.037a2.893,2.893,0,0,0,1.237-2.532c-.056-7.62.139-15.245-.082-22.858A9.708,9.708,0,0,1,81.555,0c7.463.2,14.936.05,22.4.05.151,0,.3,0,.454,0,2.308.017,3.718,1.19,3.691,3.068-.027,1.826-1.408,2.976-3.624,2.983-3.129.011-6.258,0-9.386,0-4.592,0-9.184-.008-13.776,0-2.658.006-3.828,1.137-3.829,3.752q-.013,26.04.035,52.079a2.647,2.647,0,0,0,.93,1.827Q97.322,78.209,116.242,92.58a1.319,1.319,0,0,0,1.936,0q18.886-14.416,37.788-28.811a2.65,2.65,0,0,0,.915-1.836q.073-26.039.034-52.079c0-2.6-1.182-3.736-3.844-3.738q-11.127-.013-22.255,0c-.4,0-.808.009-1.211,0a3.077,3.077,0,0,1-3.306-3A3.051,3.051,0,0,1,129.548.061c1.311-.031,2.624-.007,3.936-.007,6.611,0,13.222-.014,19.832,0,5.69.016,9.626,3.908,9.65,9.585.032,7.62.048,15.241-.025,22.86a3.844,3.844,0,0,0,1.6,3.426c4.9,3.891,9.693,7.912,14.563,11.838a4.3,4.3,0,0,1,1.709,3.649q-.041,34.821-.022,69.641c0,5.861-3.924,9.809-9.758,9.81q-53.82.012-107.64,0c-5.842,0-9.771-3.944-9.778-9.791q-.017-14.458,0-28.916V90.282m47.167-1.871L64.486,124.7H170.368L133.9,88.232c-.32.236-.726.527-1.124.83-4.459,3.386-8.909,6.785-13.38,10.156a3.165,3.165,0,0,1-4.4-.007c-.406-.3-.8-.61-1.205-.915l-13.018-9.884M95.239,84.19,59.75,57.215V119.67L95.239,84.19m79.433-26.983L139.338,84.075l35.334,35.353ZM163.041,58.44l10.113-7.691-10.113-8.266ZM71.371,42.484,61.262,50.751l10.108,7.678Z" transform="translate(-25.751 0)" fill="#43a6c1"/>
    <path id="Trazado_2040" data-name="Trazado 2040" d="M245.122,63.98a24.55,24.55,0,1,1-24.615,24.439A24.529,24.529,0,0,1,245.122,63.98m-18.56,24.449a18.493,18.493,0,1,0,18.551-18.394,18.51,18.51,0,0,0-18.551,18.394" transform="translate(-153.602 -44.568)" fill="#295a83"/>
    <path id="Trazado_2041" data-name="Trazado 2041" d="M297.5,3.208a3.016,3.016,0,1,1-6.031-.032,3.016,3.016,0,0,1,6.031.032" transform="translate(-203.035 -0.149)" fill="#295a83"/>
    <path id="Trazado_2042" data-name="Trazado 2042" d="M277.086,127.8c2.534-2.546,4.823-4.868,7.14-7.163a3.083,3.083,0,0,1,3.834-.712,2.906,2.906,0,0,1,.712,4.64c-3.1,3.23-6.284,6.388-9.492,9.515a2.926,2.926,0,0,1-4.214-.055q-2.728-2.608-5.337-5.34a3,3,0,1,1,4.3-4.183c1.044,1,1.976,2.121,3.059,3.3" transform="translate(-187.266 -83.264)" fill="#295a83"/>
  </g>
</svg>
