<svg xmlns="http://www.w3.org/2000/svg" xmlns:xlink="http://www.w3.org/1999/xlink" width="52" height="52" viewBox="0 0 52 52">
  <defs>
    <clipPath id="clip-path">
      <rect id="Mask" width="36" height="36" rx="18" transform="translate(0.176 0.176)" fill="none" stroke="#979797" stroke-width="1"/>
    </clipPath>
  </defs>
  <g id="Grupo_3015" data-name="Grupo 3015" transform="translate(-162 -45)">
    <g id="Avatar" transform="translate(162.251 45.251)">
      <g id="Path" transform="translate(-0.251 -0.251)" fill="none" stroke="#4198af" stroke-width="1">
        <rect width="52" height="52" rx="26" stroke="none"/>
        <rect x="0.5" y="0.5" width="51" height="51" rx="25.5" fill="none"/>
      </g>
    </g>
    <path id="Trazado_2007" data-name="Trazado 2007" d="M124.721,18.918a4.724,4.724,0,0,1-.775,2.94,3.556,3.556,0,0,1-2.894,1.231,10.7,10.7,0,0,1-5.169-1.928,12.907,12.907,0,0,1-1.2-.876.308.308,0,0,0-.468.019,12.611,12.611,0,0,1-13.047,2.163A13.405,13.405,0,0,1,97.7,20.227a.447.447,0,0,0-.2-.119.459.459,0,0,0-.335.137A17.437,17.437,0,0,1,93.7,22.329a7.336,7.336,0,0,1-2.721.751,3.461,3.461,0,0,1-3.538-2.571,5.3,5.3,0,0,1-.131-2.265,19.268,19.268,0,0,1,.606-3.025A28.309,28.309,0,0,1,89.271,11.5c.493-1.1.979-2.211,1.563-3.27a34.1,34.1,0,0,1,3.57-5.6A7.7,7.7,0,0,1,96.683.65a4.824,4.824,0,0,1,5.678.623,23.13,23.13,0,0,1,3.2,3.924c.486.7.451.72.955.034C107.854,3.409,109.257.9,111.566.2c2.334-.708,4.444.608,5.958,2.271A24.36,24.36,0,0,1,120.8,7.433c1.771,3.293,3.506,6.909,3.875,10.676.025.256.043.529.046.809m-18.467,2.09a10.044,10.044,0,0,0,3.511-.74,16.794,16.794,0,0,0,2.549-1.493c.461-.293.51-.381.163-.84a8.394,8.394,0,0,1-1.234-2.486,4.57,4.57,0,0,1-.12-2.554,3.315,3.315,0,0,1,5.712-1.038,4.028,4.028,0,0,1,.5,3.547,8.044,8.044,0,0,1-.7,1.78c-.211.394-.884,1.028-.364,1.392a10.966,10.966,0,0,0,4.622,2.131,1.525,1.525,0,0,0,.927-.088,1.586,1.586,0,0,0,.621-1.431,13.734,13.734,0,0,0-1.1-5.047,45.383,45.383,0,0,0-3.425-7.164,12.388,12.388,0,0,0-3.234-4.026,2.87,2.87,0,0,0-2.551-.457,3.417,3.417,0,0,0-1.243.9,40.794,40.794,0,0,0-3.221,4.2c-.087.119-.248.256-.114.475a17.4,17.4,0,0,1,1.485,3.122,5.6,5.6,0,0,1,.4,2.576,3.066,3.066,0,0,1-.81,1.862,3.5,3.5,0,0,1-6.012-2.709,10.731,10.731,0,0,1,1.7-4.363c.348-.616.355-.607-.051-1.171-.843-1.172-1.709-2.335-2.59-3.479a3.638,3.638,0,0,0-2.2-1.531,2.966,2.966,0,0,0-2.1.578,7.344,7.344,0,0,0-1.545,1.593A35.372,35.372,0,0,0,90.5,14.871a14.323,14.323,0,0,0-.867,3.818,3.722,3.722,0,0,0,.15,1.408,1.03,1.03,0,0,0,.411.576,2.063,2.063,0,0,0,1.442-.07,8.826,8.826,0,0,0,1.551-.594,21.244,21.244,0,0,0,2.745-1.677.135.135,0,0,0,.057-.218,13.381,13.381,0,0,1-1.175-2.56,4.977,4.977,0,0,1-.111-2.781,3.146,3.146,0,0,1,5.177-1.46,3.764,3.764,0,0,1,1.009,3.312,7.515,7.515,0,0,1-1.615,3.546c-.147.184-.1.259.049.395a10.019,10.019,0,0,0,6.931,2.443m-.173-10.837a10.039,10.039,0,0,0-1.128,2.473,1.424,1.424,0,0,0,.588,1.65.6.6,0,0,0,.518.119,1.252,1.252,0,0,0,1.02-1.69,14.289,14.289,0,0,0-1-2.552m9.054,3.8c0-.067,0-.133,0-.2,0-.627-.286-.863-1.052-.858a.73.73,0,0,0-.747.88,5.98,5.98,0,0,0,.854,2.523c.135.225.223.116.3-.035a5.37,5.37,0,0,0,.649-2.31m-18.2-.16a5.773,5.773,0,0,0,.568,2.327c.076.189.2.281.342.029a4.591,4.591,0,0,0,.709-2.723.887.887,0,0,0-.8-.763.714.714,0,0,0-.767.493,2.106,2.106,0,0,0-.048.637" transform="translate(82.195 58.298)" fill="#43a6c1"/>
  </g>
</svg>
