<svg id="Grupo_3014" data-name="Grupo 3014" xmlns="http://www.w3.org/2000/svg" xmlns:xlink="http://www.w3.org/1999/xlink" width="240.044" height="133.429" viewBox="0 0 240.044 133.429">
  <defs>
    <clipPath id="clip-path">
      <rect id="Rect치ngulo_1505" data-name="Rect치ngulo 1505" width="240.044" height="133.429" fill="none"/>
    </clipPath>
  </defs>
  <g id="Grupo_3010" data-name="Grupo 3010" clip-path="url(#clip-path)">
    <path id="Trazado_2045" data-name="Trazado 2045" d="M192.148,54.071c.035,2.947-.459,6.175-2.214,8.4a10.163,10.163,0,0,1-8.272,3.519c-5.073-.2-10.617-2.71-14.773-5.511a36.887,36.887,0,0,1-3.419-2.5.879.879,0,0,0-1.337.054,36.043,36.043,0,0,1-37.29,6.181,38.314,38.314,0,0,1-9.941-6.4,1.278,1.278,0,0,0-.584-.339,1.312,1.312,0,0,0-.958.391,49.837,49.837,0,0,1-9.887,5.954A20.969,20.969,0,0,1,95.7,65.964c-4.933.183-8.649-2.72-10.112-7.347a15.15,15.15,0,0,1-.374-6.472A55.074,55.074,0,0,1,86.944,43.5a80.9,80.9,0,0,1,3.882-10.619c1.41-3.152,2.8-6.318,4.466-9.345,3.059-5.55,6.1-11.119,10.2-16.005a22,22,0,0,1,6.515-5.671c5.356-2.791,11.578-2.53,16.228,1.779a66.108,66.108,0,0,1,9.134,11.217c1.39,2.012,1.288,2.058,2.73.1C143.938,9.743,147.949,2.562,154.547.56c6.671-2.024,12.7,1.738,17.029,6.491,3.834,4.211,6.682,9.2,9.366,14.195,5.062,9.412,10.02,19.746,11.075,30.513.073.732.122,1.512.131,2.312m-52.781,5.974A28.707,28.707,0,0,0,149.4,57.929a48,48,0,0,0,7.285-4.267c1.318-.837,1.457-1.088.467-2.4a23.992,23.992,0,0,1-3.527-7.106,13.061,13.061,0,0,1-.344-7.3c1.972-7.182,11.824-8.6,16.326-2.968,2.288,2.861,2.309,6.74,1.438,10.139a22.99,22.99,0,0,1-2.006,5.086c-.6,1.127-2.526,2.938-1.041,3.98,3.957,2.774,8.345,5.411,13.21,6.091a4.358,4.358,0,0,0,2.65-.252c1.378-.732,1.737-2.529,1.775-4.089.119-4.951-1.418-9.782-3.143-14.424A129.714,129.714,0,0,0,172.7,19.943c-2.384-4.063-5.285-8.792-9.244-11.506a8.2,8.2,0,0,0-7.291-1.305,9.766,9.766,0,0,0-3.552,2.584c-3.435,3.612-6.279,7.989-9.206,12.017-.248.341-.71.732-.324,1.357a49.725,49.725,0,0,1,4.244,8.924,16,16,0,0,1,1.146,7.362,8.763,8.763,0,0,1-2.314,5.323,9.993,9.993,0,0,1-17.184-7.742c.339-4.55,2.661-8.58,4.858-12.471.995-1.762,1.015-1.734-.145-3.346-2.41-3.349-4.884-6.674-7.4-9.943-1.6-2.075-3.7-3.987-6.29-4.375a8.478,8.478,0,0,0-5.991,1.653,20.989,20.989,0,0,0-4.415,4.553A101.1,101.1,0,0,0,94.338,42.5,40.938,40.938,0,0,0,91.86,53.415a10.638,10.638,0,0,0,.429,4.024,2.944,2.944,0,0,0,1.173,1.645c1.158.673,2.921.124,4.122-.2a25.227,25.227,0,0,0,4.434-1.7,60.656,60.656,0,0,0,7.844-4.794.386.386,0,0,0,.164-.622,38.244,38.244,0,0,1-3.359-7.316,14.225,14.225,0,0,1-.316-7.949,8.992,8.992,0,0,1,14.8-4.174,10.759,10.759,0,0,1,2.884,9.466,21.479,21.479,0,0,1-4.615,10.136c-.42.527-.3.74.141,1.129a28.635,28.635,0,0,0,19.81,6.982m-.494-30.973a28.692,28.692,0,0,0-3.224,7.067,4.069,4.069,0,0,0,1.682,4.716,1.713,1.713,0,0,0,1.48.341c2.49-.539,3.437-2.177,2.916-4.83-.492-2.5-1.781-4.68-2.854-7.294M164.75,39.923c0-.19,0-.38,0-.57.008-1.793-.816-2.466-3.007-2.453a2.086,2.086,0,0,0-2.134,2.516,17.092,17.092,0,0,0,2.441,7.211c.385.643.638.331.845-.1a15.347,15.347,0,0,0,1.854-6.6m-52.024-.457a16.5,16.5,0,0,0,1.622,6.65c.217.539.562.8.976.084a13.121,13.121,0,0,0,2.026-7.784,2.537,2.537,0,0,0-2.295-2.18,2.04,2.04,0,0,0-2.193,1.41,6.019,6.019,0,0,0-.137,1.821" transform="translate(-19.818 0)" fill="#fff"/>
    <text id="MI_AUDIOGUIA" data-name="MI AUDIOGUIA" transform="translate(0.334 105.326)" fill="#fff" font-size="32" font-family="Poppins-SemiBold, Poppins" font-weight="600"><tspan x="0" y="0">MI AUDIOGUIA</tspan></text>
    <text id="VIVE_EXPERIENCIAS_INOLVIDABLES" data-name="VIVE EXPERIENCIAS INOLVIDABLES" transform="translate(4 122.103)" fill="#fff" font-size="10" font-family="Poppins-Medium, Poppins" font-weight="500"><tspan x="0" y="0" letter-spacing="0.2em">VIVE</tspan><tspan y="0" letter-spacing="0.199em"> </tspan><tspan y="0" letter-spacing="0.2em">EXPERIENCIAS</tspan><tspan y="0" letter-spacing="0.199em"> </tspan><tspan y="0" letter-spacing="0.2em">INOLVIDABLE</tspan><tspan y="0">S</tspan></text>
    <rect id="Rect치ngulo_1504" data-name="Rect치ngulo 1504" width="238.466" height="4.276" transform="translate(1.578 129.153)" fill="#fff"/>
  </g>
</svg>
